<svg xmlns="http://www.w3.org/2000/svg" viewBox="0 0 1440 1440" height="1440" width="1440" xml:space="preserve" version="1.1" xmlns:xlink="http://www.w3.org/1999/xlink">
  <defs>
    <clipPath id="a" clipPathUnits="userSpaceOnUse">
      <path d="M0 1080h1080V0H0Z"></path>
    </clipPath>
  </defs>
  <path style="fill:#fff;fill-opacity:0;fill-rule:nonzero;stroke:none" d="M0 0h1080v1080H0Z" transform="matrix(1.33333 0 0 -1.33333 0 1440)"></path>
  <path style="fill:#ffffff;fill-opacity:1;fill-rule:nonzero;stroke:none" d="M0 0v-24.643l-1.903-1.895h-64.06v-24.011h60.889v-25.275h-60.889v-27.802H0v-25.275h-95.138V0z" transform="matrix(1.33333 0 0 -1.33333 705.31 626.81)"></path>
  <g clip-path="url(#a)" transform="matrix(1.33333 0 0 -1.33333 0 1440)">
    <path style="fill:#ffffff;fill-opacity:1;fill-rule:nonzero;stroke:none" d="M0 0c-22.841 22.75-61.336-11.382-37.66-36.886C-13.461-62.954 25.013-24.914 0 0m-43.945-60.208v-40.439h-26.638V29.517h26.638l.007-6.312c4.798 1.985 8.715 4.367 13.937 5.69 44.993 11.397 79.89-35.32 55.599-74.346-14.837-23.837-46.027-29.063-69.543-14.757" transform="translate(609.715 547.52)"></path>
    <path style="fill:#ffffff;fill-opacity:1;fill-rule:nonzero;stroke:none" d="M0 0c-31.069-5.278-25.604-57.402 10.818-51.207C43.04-45.726 36.122 6.136 0 0m30.781-72.992-.013 6.319C7.615-81.761-25.085-75.292-39.202-51.09c-23.143 39.673 12.728 85.629 57.018 73.232 4.878-1.365 8.446-3.582 12.958-5.403l.007 6.313h26.638v-96.044z" transform="translate(813.891 553.712)"></path>
    <path style="fill:#ffffff;fill-opacity:1;fill-rule:nonzero;stroke:none" d="M0 0v-74.56l32.347 41.703h29.81L25.498-81.335l37.928-47.566H31.079L0-89.725v-39.176h-26.639V0Z" transform="translate(715.455 609.894)"></path>
    <path style="fill:#ffffff;fill-opacity:1;fill-rule:nonzero;stroke:none" d="M678.668 480.993h-26.639v96.044h26.639zm0 104.89h-26.639v24.011h26.639z"></path>
    <path style="fill:#ffffff;fill-opacity:1;fill-rule:nonzero;stroke:none" d="M0 0h21.944l-.094-3.092c-.01-.327-.252-8.077-.836-14.69-.358-4.053-1.854-7.298-4.019-9.874 2.424.803 4.691 1.82 6.581 3.102 5.588 3.792 6.834 14.919 6.842 18.886v35.65H0Zm-4.785-36.7c-.657 0-1.067.01-1.175.012l.076 6h.005c.868.002 19.751.222 20.916 13.433.346 3.925.573 8.367.697 11.255H-6v41.982h42.418V-5.671c0-.711-.107-17.492-9.473-23.848C17.065-36.223-.108-36.7-4.785-36.7" transform="translate(280.448 519.49)"></path>
    <path style="fill:#ffffff;fill-opacity:1;fill-rule:nonzero;stroke:none" d="M0 0c3.918-.926 8.59-3.778 8.835-10.486l.002-.11v-38.399c0-3.836.536-7.438 1.591-10.706 1.237-3.826 2.926-6.696 4.885-8.3l.214-.176.18-.212c.347-.399 8.808-9.806 29.603-7.203v16.028h-8.654c-.408-.022-4.699-.016-7.954 3.163-2.212 2.161-3.333 5.156-3.333 8.901v35.156c-.001.12-.099 12.454-6.075 19.411l-1.761 2.05 1.857 1.965c.027.029 3.775 4.147 4.952 11.159 1.505 8.969 1.32 31.395 1.318 31.621v11.293c-.045 3.794 2.081 11.201 10.448 11.829l.224.008h8.978v16.337H35.069c-.174 0-13.061.067-18.368-6.384-5.932-7.209-7.001-8.508-7.184-20.573l.001-35.616c.13-1.244.418-6.26-2.889-9.948C4.963 18.95 2.741 17.8 0 17.373Zm38.345-82.04c-17.375 0-25.608 8.022-27.019 9.552-2.805 2.374-5.027 6.054-6.607 10.942-1.248 3.865-1.882 8.088-1.882 12.551v38.34C2.625-5.772-2.423-5.632-3-5.632h-3v28.903l3.08-.082c2.331-.075 4.041.478 5.064 1.604 1.491 1.642 1.515 4.456 1.398 5.402l-.024.387v35.835c.206 13.649 1.942 16.311 8.549 24.34 7.146 8.685 22.396 8.579 23.043 8.572h16.2V70.992H36.455c-4.544-.407-4.792-4.918-4.795-5.824V53.889c.008-.914.192-23.153-1.401-32.641-.964-5.74-3.307-9.93-4.905-12.239 5.941-8.665 6.015-20.801 6.015-21.353V-47.5c0-2.048.502-3.588 1.493-4.577 1.476-1.474 3.732-1.487 3.755-1.487H51.31v-27.171l-2.514-.413c-3.798-.624-7.277-.892-10.451-.892" transform="translate(211.69 536.798)"></path>
    <path style="fill:#ffffff;fill-opacity:1;fill-rule:nonzero;stroke:none" d="M0 0c20.792-2.598 29.255 6.804 29.619 7.221l.378.37c1.959 1.603 3.648 4.473 4.884 8.3 1.056 3.268 1.591 6.87 1.591 10.706l.002 38.508c.246 6.708 4.917 9.561 8.836 10.487v17.373c-2.742.427-4.964 1.577-6.63 3.435-3.305 3.687-3.018 8.704-2.888 9.948v35.661c-.182 12.019-1.251 13.319-7.183 20.528-5.308 6.451-18.203 6.41-18.332 6.384H0v-16.337l9.202-.008c8.367-.628 10.493-8.035 10.448-11.865v-11.23c-.002-.253-.188-22.679 1.318-31.648 1.178-7.012 4.925-11.13 4.962-11.17l1.816-1.964-1.731-2.04c-6.004-6.991-6.074-19.288-6.074-19.411V28.092c0-3.745-1.121-6.74-3.333-8.901-3.254-3.179-7.547-3.18-8.024-3.163L0 16.027Zm6.965-6.448c-3.175 0-6.652.266-10.451.891L-6-5.144v27.171H8.656c.098 0 2.329.027 3.792 1.488.991.99 1.493 2.529 1.493 4.577v35.156c0 .552.074 12.688 6.014 21.353-1.597 2.309-3.94 6.499-4.904 12.238-1.593 9.489-1.409 31.727-1.401 32.669v11.239c-.003.919-.251 5.43-4.795 5.837H-6v28.337h16.24c.607.018 15.856.115 23.003-8.572 6.606-8.03 8.343-10.691 8.549-24.294V105.97l-.027-.202c-.114-.927-.09-3.742 1.401-5.383 1.023-1.127 2.727-1.678 5.064-1.604l3.08.081V69.96h-3c-.925-.014-5.633-.319-5.838-5.023v-38.34c0-4.463-.633-8.686-1.881-12.55-1.579-4.889-3.801-8.568-6.607-10.943-1.412-1.531-9.648-9.552-27.019-9.552" transform="translate(334.8 461.206)"></path>
    <path style="fill:#ffffff;fill-opacity:1;fill-rule:nonzero;stroke:none" d="M280.48 574.394h30.386v29.609H280.48Zm36.386-6H274.48v41.609h42.386z"></path>
  </g>
</svg>